<?xml version="1.0" encoding="utf-8"?>
<!-- Generator: Adobe Illustrator 27.4.1, SVG Export Plug-In . SVG Version: 6.00 Build 0)  -->
<svg version="1.1" id="Layer_1" xmlns="http://www.w3.org/2000/svg" xmlns:xlink="http://www.w3.org/1999/xlink" x="0px" y="0px"
	 viewBox="0 0 333.6 94.4" style="enable-background:new 0 0 333.6 94.4;" xml:space="preserve">
<style type="text/css">
	.st0{fill:#040606;}
	.st1{clip-path:url(#SVGID_00000127747710166500691940000004397958117717032326_);}
	.st2{clip-path:url(#SVGID_00000003803276103862164550000013878789775448790920_);}
	.st3{fill:#FFBA08;}
	.st4{clip-path:url(#SVGID_00000150821837047129647030000014470091801712773802_);}
	.st5{clip-path:url(#SVGID_00000061456938172290752930000012458379497595524284_);}
	.st6{clip-path:url(#SVGID_00000015353101473848592900000011795552974799243455_);}
	.st7{clip-path:url(#SVGID_00000057841282321772003820000007700552847611318437_);}
	.st8{fill:#FFFFFF;}
	.st9{fill:#F2CD79;}
	.st10{clip-path:url(#SVGID_00000152263528069108643810000003464804156074602402_);}
	.st11{fill:#3A3836;}
</style>
<g>
	<g transform="translate(142.237875, 205.732429)">
		<g>
			<path class="st0" d="M2.4-133.5c8.2,0,14.9-4.6,14.9-12c0-13.2-19.7-9.1-19.7-17.4c0-2.6,2.2-5,7.1-5c3.9,0,7.4,1.5,10,2.9
				l1.7-6.2c-2.3-1.8-7.4-3.1-11.9-3.1c-8.5,0-14.2,4.9-14.2,12.2c0,14,19.7,9.5,19.7,17.2c0,3-2.8,5.2-7.7,5.2
				c-3.9,0-8-1.4-11.1-3.2l-1.3,6.5C-6.9-134.8-2.2-133.5,2.4-133.5z"/>
		</g>
	</g>
</g>
<g>
	<g transform="translate(170.125872, 205.732429)">
		<g>
			<path class="st0" d="M-2.2-173.6v6.3h12.5v33h7.3v-33h12.5v-6.3H-2.2z"/>
		</g>
	</g>
</g>
<g>
	<g transform="translate(199.777861, 205.732429)">
		<g>
			<path class="st0" d="M29.2-133.5c11.5,0,20.1-8.6,20.1-20.4c0-12.1-8.3-20.4-20-20.4c-11.6,0-20.2,8.5-20.2,20.4
				C9.1-141.6,17.5-133.5,29.2-133.5z M29.3-140.1c-7,0-12.6-5-12.6-13.8c0-8.6,5.7-13.8,12.5-13.8c6.8,0,12.5,5,12.5,13.8
				C41.7-145.2,35.8-140.1,29.3-140.1z"/>
		</g>
	</g>
</g>
<g>
	<g transform="translate(237.493849, 205.732429)">
		<g>
			<path class="st0" d="M52.7-134.2l-9.5-15.1c4.6-1.8,8.1-5.7,8.1-11.6c0-9-7.1-12.6-14.6-12.6H23.8v39.4h7.4v-13.9h5.3l8.1,13.9
				H52.7z M35.2-167.5c5.8,0,8.7,2.4,8.7,6.7c0,4-2.9,6.6-8.6,6.6h-4v-13.3H35.2z"/>
		</g>
	</g>
</g>
<g>
	<g transform="translate(267.775846, 205.732429)">
		<g>
			<path class="st0" d="M48.6-154.5l15.5-19.1h-8.3l-14.6,18.4v-18.4h-7.4v39.4h7.4v-18.3l14.1,18.3h9.2L48.6-154.5z"/>
		</g>
	</g>
</g>
<g>
	<defs>
		<rect id="SVGID_1_" x="2.1" y="0.5" width="89.8" height="89.8"/>
	</defs>
	<clipPath id="SVGID_00000046333558157423031200000009197591837416785327_">
		<use xlink:href="#SVGID_1_"  style="overflow:visible;"/>
	</clipPath>
	<g style="clip-path:url(#SVGID_00000046333558157423031200000009197591837416785327_);">
		<g>
			<defs>
				<path id="SVGID_00000134226306154533171320000013780323003715007920_" d="M47,0.5C22.2,0.5,2.1,20.6,2.1,45.4
					c0,24.8,20.1,44.9,44.9,44.9c24.8,0,44.9-20.1,44.9-44.9C91.9,20.6,71.8,0.5,47,0.5"/>
			</defs>
			<clipPath id="SVGID_00000027574820528239861400000009629190644100775047_">
				<use xlink:href="#SVGID_00000134226306154533171320000013780323003715007920_"  style="overflow:visible;"/>
			</clipPath>
			<g style="clip-path:url(#SVGID_00000027574820528239861400000009629190644100775047_);">
				<path class="st3" d="M2.1,0.5h89.8v89.8H2.1V0.5z"/>
			</g>
		</g>
	</g>
</g>
<g>
	<defs>
		<rect id="SVGID_00000036240619050735954750000009680791120177275034_" x="0.3" y="0.5" width="93" height="93"/>
	</defs>
	<clipPath id="SVGID_00000159450137397294584530000006382829653980605346_">
		<use xlink:href="#SVGID_00000036240619050735954750000009680791120177275034_"  style="overflow:visible;"/>
	</clipPath>
	<g style="clip-path:url(#SVGID_00000159450137397294584530000006382829653980605346_);">
		<path class="st0" d="M46.8,91c-24.2,0-44-19.7-44-44c0-16,8.6-30.1,21.4-37.8c0.5,0.4,1.1,0.6,1.9,0.6c0,0,0.8,0-4.5,4.2
			c-5.4,4.2-4.9,10.1-3.2,6.4c1.7-3.7,3.2-2.3,0.5,2.9c-2.7,5.2,1.4,3.5,2.8,6.7c1.4,3.2,1.9-0.7,2.6,5.4c0,0,1.7,2,4.7,1
			c3-1-0.5,2.7-3.7,5.7c-3.2,3-2.2,4-0.5,5.9c1.7,1.9,2.4,3.4,0.8,5.4c-1.5,2,2.4,2.7,3.4,3.9c1,1.2,0.8,5.1-1.5,6.7
			c-2.4,1.7,1.2,5.4,0.7,10.6c-0.5,5.2-0.4,7.4,2,7.7c2.4,0.3-0.3-4.5,0.7-6.7c1-2.2,2.2,1.5,4.6-4.4c0,0,4.2,1,6.1-5.4
			c0,0,3.7-0.5,4.4-2.5c0.7-2-0.2-3.4,5.2-7.8s-3.7-7.8-8.6-7.9c0,0-1.8,0.7,1.3-4.9c1.4-2.5-2.7-1.8-3.7-4c-1-2.2-3.4-4.7-8.1-4.2
			c-4.7,0.5-6.1,2.2-6.2-0.7c-0.2-2.9,2-4.2-0.3-4.5c-2.4-0.3-1.2-0.5,1.4-2.9c0,0-1.5-1-3,0.5c-1.5,1.5-4.2-0.8-1-4.2
			c3.2-3.4,8.3-5.9,7.9,0.5c-0.3,6.4,2-2.9,2-2.9s3.5-4.5,7.9-4.9c4.4-0.3,1.7-0.5,1.7-2c0-1.5,2,2.5,4.5,1.5c2.4-1-2.6-1.3-2.1-3
			c0.5-1.7,3.4-1.2,4.5,1c1.2,2.2,2.5-1.2-0.5-4.7c-3-3.5-2.5-1.3-5.4,0.2c-2.9,1.5-1.7,2.4-2.2-0.2c-0.5-2.5-0.7,0.2-2-1.2
			c-1.4-1.3,2.4-0.7,4.4-0.5c2,0.2,1.3-1.2,1.3-1.2l1.9-0.8c0,0,1.3,1.8,2.8,1.5c1.5-0.3-1-2.7,0.5-2.4c1.5,0.3,3.5-1,3.7,1
			c0.2,2-1.2,4.7,4.4,1.7c1.1-0.6,1.9-1,2.4-1.2c0.4,0.1,0.7,0.2,1.1,0.4c0,0.4,0.2,0.9,0.9,1.4c2.2,1.3,1.5,0.2,4.4,1.8
			c2.9,1.7,1,3.5,3.2,3.9c2.2,0.3,4.2,3.4,2.5,3.5c-1.7,0.2-1.9-1.8-4.4-2.2c-2.5-0.3,1,0.8,2.7,2.4c1.7,1.5,1.7,3.3,0,4
			c-1.7,0.7-0.4,4.6,2.3,4.1c2.7-0.5,1.7-3.4,3.2-2.7c1.5,0.7,1,2.4,3.5,3.4c2.5,1-0.3,2.4,2.7,2.5c3,0.2,4.5,1.3,1.8,2.5
			c-2.7,1.2-1.3,2.2-3.7-0.7s-2.1-0.1-2.4-2.9c-0.2-2.7-4-0.2-6.1,0.2c-2,0.3-0.3,2.4-2.2,2.7c-1.9,0.3-2.7-0.2-2.2,4.2
			c0.5,4.4-0.7,5.4-2.7,5.4c-2,0,1.7,2.4,2.7,5.4c1,3,1.2,4.9,5.6,3.7c4.4-1.2,3-1.2,3.5,1.2c0.5,2.4,2.4-1.3,2.7,1
			c0.3,2.4-4.2,2.9-1.7,4.4c2.5,1.5,0.7,5.1-0.5,5.9c-1.2,0.8-0.3,3.9-2.9,5.2c-2.5,1.3,1.2,3.7-0.3,5.2c-1.5,1.5-5.6,3.4-4,7.1
			c1.5,3.7,1.5,1.5,4.7-1.2c3.2-2.7,5.9-7.2,7.4-7.1c0.5,0.1,0.8,0.5,1.1,0.8C75.9,83,62.3,91,46.8,91z M46.8,0.5
			C21.1,0.5,0.3,21.4,0.3,47c0,25.6,20.9,46.5,46.5,46.5S93.3,72.6,93.3,47C93.3,21.4,72.4,0.5,46.8,0.5"/>
	</g>
</g>
<g>
	<defs>
		<rect id="SVGID_00000015355295904882603070000002937529066870190981_" x="95.6" y="46.6" width="14.2" height="28"/>
	</defs>
	<clipPath id="SVGID_00000142855536073040734600000003829056803770634927_">
		<use xlink:href="#SVGID_00000015355295904882603070000002937529066870190981_"  style="overflow:visible;"/>
	</clipPath>
	<g style="clip-path:url(#SVGID_00000142855536073040734600000003829056803770634927_);">
		<path class="st0" d="M105.4,47.8c1.3,3.2,2.5,6.4,3.4,9.7c0.8,3.2,1.7,7,1.3,10.3c-0.6,4.5-4.7,7-9,6c-4.2-1.1-4.8-6.7-3.6-10.2
			c2-5.6,4.9-11,7.6-16.3C105.2,47.6,105.3,47.7,105.4,47.8z"/>
	</g>
</g>
<g>
	<defs>
		<rect id="SVGID_00000168816345432581458460000009976345307652593849_" x="105" y="38.6" width="4.8" height="9.3"/>
	</defs>
	<clipPath id="SVGID_00000092435704363202426650000014732351177877024676_">
		<use xlink:href="#SVGID_00000168816345432581458460000009976345307652593849_"  style="overflow:visible;"/>
	</clipPath>
	<g style="clip-path:url(#SVGID_00000092435704363202426650000014732351177877024676_);">
		<path class="st0" d="M107.9,40c0.5-0.5,0.9-0.4,1.1,0.3c0.1,0.3,0,0.5,0.1,0.8c0,0.9-0.3,1.6-0.7,2.4c-0.6,1.2-2.2,3.1-3.2,4
			c-0.1-0.1,0.8-3.4,1.1-4.6C106.5,41.7,107.1,40.8,107.9,40z"/>
	</g>
</g>
<path class="st0" d="M101.2,44c-0.3-0.4-0.5-1-0.5-1.5c0-0.2,0.3-0.4,0.5-0.3c1.4,0.6,3.4,3.1,3.9,5.2c-0.6-0.5-1.9-1.4-2.5-1.9
	C102.1,45.1,101.6,44.6,101.2,44z"/>
<g>
	<defs>
		<rect id="SVGID_00000135652249164571866550000016910668543450202753_" x="11.2" y="15" width="84.4" height="43.5"/>
	</defs>
	<clipPath id="SVGID_00000170990222935393035910000000746565238940572071_">
		<use xlink:href="#SVGID_00000135652249164571866550000016910668543450202753_"  style="overflow:visible;"/>
	</clipPath>
	<g style="clip-path:url(#SVGID_00000170990222935393035910000000746565238940572071_);">
		<path class="st8" d="M16,47.5c-1.5-1.5-3.2-2-4.8-3c1.3-0.1,2.3,0.3,3.4,0.7c2.1,0.7,4.3,1,6.4,1.5c2.3,0.5,4.6,0.9,7,1
			c7.8,0.5,15-3.8,22.6-5c0.9-0.2,1.8-0.3,2.8-0.3c0.5,0,2.1,0,1.5-1c-0.5-0.6-1.8-1.1-2.4-1.5c-0.2-0.2-0.5-0.4-0.8-0.7
			c0.4-0.2,0.6-0.3,0.9-0.4c0.5-0.3,0.6-0.7,0.1-1c-0.5-0.3-1.1-0.6-1.6-0.9c-0.4-0.2-0.8-0.4-1.1-0.7c-0.6-0.4-0.5-0.7,0.1-1
			c0.3-0.1,0.6-0.2,0.9-0.4c0.4-0.2,0.4-0.6,0.1-0.8c-0.3-0.2-0.6-0.4-1-0.7c-0.6-0.3-1.2-0.7-1.8-1c-0.3-0.2-0.5-0.4-0.9-0.8
			c0.3-0.2,0.5-0.3,0.7-0.4c0.2-0.1,0.4-0.1,0.6-0.2c0.2-0.1,0.6-0.3,0.6-0.4c0-0.2-0.2-0.6-0.4-0.7c-0.5-0.4-1.1-0.7-1.8-1
			c-1.2-0.5-2.4-0.9-3.5-1.5c-0.4-0.1-0.7-0.3-0.9-0.8c0.6-0.2,1.2-0.2,1.8-0.2c0.2,0,0.5,0.1,0.8,0c0.2,0,0.5-0.2,0.6-0.4
			c0.1-0.1-0.1-0.5-0.2-0.6c-0.7-0.4-1.5-0.8-2.2-1.1c-1.7-0.6-3.5-1.1-5.2-1.7c-0.3-0.1-0.5-0.4-0.8-0.6c0.5-0.4,1-0.5,1.5-0.4
			c0.5,0.1,1,0.2,1.5,0.2c0.2,0,0.5,0.1,0.7,0c0.2-0.1,0.4-0.3,0.5-0.4c0-0.1-0.1-0.4-0.2-0.5c-0.6-0.3-1.2-0.7-1.9-0.9
			c-1.5-0.6-3.1-1-4.6-1.6c-1.6-0.7-3.3-1.4-4.6-2.6c-0.1-0.1-0.2-0.3-0.4-0.4c0.3-0.4,0.7-0.4,1-0.4c7.3-0.4,15.6,0.7,22,4.5
			c3,1.8,5.6,4.3,7.7,7.1c1.8,2.5,3.5,5.1,5.3,7.7c3.8,5.3,9.6,9,15.9,10c0.6,0.1,1.4,0.3,2,0.2c1.8-0.1,3.8-1.2,5.3-2.1
			c1.4-0.9,2.5-1,3.9-0.2c1.1,0.7,2,1.7,2.2,3c0.3,1.9-0.1,3.8-1.9,4.7c-2,1-5-0.2-7-0.7c-2-0.4-4-0.7-6-1c-2.6-0.3-5.4-0.6-8.1-0.1
			c-2.7,0.5-5.5,1.7-7.9,2.9c-1.9,0.9-3.7,2.1-5.5,3.3c-6.1,3.9-13.4,4.2-20.4,3.5c-1.6-0.2-3.2-0.4-4.8-0.8
			c-1.9-0.4-3.8-0.8-5.6-1.5c-1.9-0.7-3.8-1.7-5.5-2.8c-1.3-0.8-2.6-1.5-3.8-2.2c-0.1-0.1-0.2-0.1-0.3-0.4h1.2c0-0.1,0-0.2,0.1-0.2
			c-0.2-0.1-0.4-0.3-0.7-0.4c-1-0.4-2-0.8-3-1.2c-0.5-0.2-0.9-0.4-1.4-0.7c0-0.1,0-0.1,0-0.2C14.9,47.6,15.3,47.5,16,47.5z"/>
	</g>
</g>
<path class="st9" d="M94.8,45c3.1,0.7,8.3,1.8,11.5,2.5c-1.5,0.1-4.5,0.1-5.8,0.2c-1.4,0.1-2.8,0.3-4.3,0.4c-0.4,0-0.9,0.2-1.6,0.1
	C95,47.4,95,46.1,94.8,45z"/>
<g>
	<defs>
		<rect id="SVGID_00000062890341129163912280000017300652821769550987_" x="13" y="57.2" width="30.7" height="18.8"/>
	</defs>
	<clipPath id="SVGID_00000123427591117450922970000004206123029995886508_">
		<use xlink:href="#SVGID_00000062890341129163912280000017300652821769550987_"  style="overflow:visible;"/>
	</clipPath>
	<g style="clip-path:url(#SVGID_00000123427591117450922970000004206123029995886508_);">
		<path class="st9" d="M13.4,75.8C13.4,75.7,13.4,75.7,13.4,75.8c0.1-0.2,0.2-0.2,0.2-0.2c0.1,0,0.2,0,0.2-0.1
			c0.8-0.2,1.5-0.6,2.2-1c0.1-0.1,1.8-1.4,1.8-1.4c-0.6-0.1-1.1-0.3-1.7-0.4c0,0-0.1,0-0.1-0.1c0-0.1,0.1-0.1,0.1-0.2
			c0.7-0.2,1.4-0.5,2.1-0.8l0.5-0.3c1.2-0.6,2.5-1.2,3.8-1.9c1.4-0.8,2.8-1.7,4.1-2.5c1.4-0.9,2.9-1.8,4.4-2.7
			c3-1.8,6.5-3.9,9.7-6.2c0.1,0,0.1-0.1,0.2-0.1c0.6,0,1.1,0.1,1.7,0.1c-0.2,0.1-0.4,0.2-0.6,0.4l-0.3,0.2c-1.8,1.2-3.6,2.4-5.4,3.6
			l-0.6,0.4c-0.9,0.6-1.9,1.2-2.8,1.9c-1.6,1.1-3.3,2.2-5,3.4c-0.9,0.6-1.8,1.3-2.7,1.9c-1.5,1.1-3.2,2.3-4.8,3.3
			c-1.5,1-3.1,2.1-4.8,2.6c-0.4,0.1-0.7,0.2-1.1,0.3c-0.2,0-0.9,0.2-1,0C13.3,75.9,13.3,75.8,13.4,75.8z"/>
	</g>
</g>
<path class="st9" d="M43.9,16.6c0.3-0.3,1.5-0.5,1.6,0.1c0.2,0.8-1.1,0.3,0,1.1c1,0.7,2.1,1.4,3,2.2c0.9,0.9,0.5,1.3-0.2,2.1
	c1.3,0.8,2.9,1.6,1.1,2.9c1.3,0.7,2.6,1.5,3.8,2.3c1.6,1,1.6,1.8,0.4,3.1c1,0.8,3.2,2,1.8,3.3c0.8,0.7,2.8,2,1.4,3
	c2.2,1.3,4.2,2.8,6.2,4.4c-1.4,0.7-3.2-1.1-4.3-1.9c-0.8-0.5-1.5-1.1-2.3-1.6c-0.9-0.6-1.1-1.1-0.2-1.9c-0.5-0.5-1.9-1.3-2-2.1
	c-0.1-0.6,0.4-0.6,0.6-0.9c0.1-0.2-0.5-0.6-0.6-0.7c-0.5-0.3-1-0.6-1.4-1c-1-1,0.3-1.4,0.8-2.1c0.3-0.5-2.2-1.8-2.5-1.9
	c-0.9-0.5-2.2-0.9-2.9-1.7c-0.6-0.7,0.5-1.2,0.9-1.6c-0.6-0.3-1.8-0.8-1.9-1.6c-0.1-1,1.3-1,0.3-1.8C46.7,19.9,42.9,17.7,43.9,16.6
	C44.1,16.5,43.8,16.8,43.9,16.6z"/>
<path class="st11" d="M93.6,46.2c-0.1,0-0.3,0.1-0.4,0.1c-0.1,0-0.3,0.1-0.4,0.1c-0.3,0-0.6,0-0.9,0c-0.6-0.1-1.1-0.3-1.6-0.6
	c-0.4-0.2-1-0.6-1-1.1c0,0.1,0.6,0.3,0.7,0.4c0.2,0.1,0.5,0.3,0.8,0.4c0.5,0.2,1,0.5,1.5,0.6C92.7,46.1,93.1,46.1,93.6,46.2z"/>
</svg>
